<svg width="23" height="20" viewBox="0 0 23 20" fill="none" xmlns="http://www.w3.org/2000/svg">
<path d="M15.1161 3C17.6 3 19.0903 4.90001 19.0903 7.20001C19.0903 8.40001 18.4942 9.49999 17.7987 10.3C16.6064 11.5 11.1419 16 11.1419 16C11.1419 16 5.67747 11.5 4.48521 10.3C3.69037 9.49999 3.19355 8.40001 3.19355 7.20001C3.19355 4.90001 4.68387 3 7.16774 3C8.85677 3 10.4465 4.6 11.1419 6C11.8374 4.6 13.4271 3 15.1161 3ZM15.1161 0C13.6258 0 12.2348 0.599994 11.1419 1.39999C10.049 0.499994 8.65806 0 7.16774 0C3.19355 0 0.212906 3.10001 0.212906 7.20001C0.212906 9.10001 1.0077 10.9 2.39866 12.4C3.78963 13.9 11.1419 19.9 11.1419 19.9C11.1419 19.9 18.4942 13.9 19.8852 12.4C21.2761 10.9 22.071 9.10001 22.071 7.20001C22.071 3.10001 19.0903 0 15.1161 0Z" fill="white"/>
</svg>
